<svg xmlns="http://www.w3.org/2000/svg" viewBox="0 0 20 20"><path fill-rule="evenodd" clip-rule="evenodd" fill="#181616" d="M10 .4C4.5.4.1 4.8.1 10.3c0 4.4 2.8 8.1 6.8 9.4.5.1.7-.2.7-.5v-1.7c-2.8.6-3.3-1.3-3.3-1.3-.5-1.1-1.1-1.4-1.1-1.4-.9-.6.1-.6.1-.6 1 .1 1.5 1 1.5 1 .9 1.5 2.3 1.1 2.9.8.1-.6.3-1.1.6-1.3-2.3-.3-4.6-1.2-4.6-5 0-1.1.4-2 1-2.7-.1-.2-.4-1.2.1-2.5 0 0 .8-.3 2.7 1 .8-.3 1.7-.4 2.5-.4s1.7.1 2.5.3c1.9-1.3 2.7-1 2.7-1 .5 1.4.2 2.4.1 2.6.6.7 1 1.6 1 2.7 0 3.8-2.3 4.6-4.5 4.9.4.3.7.9.7 1.8v2.7c0 .3.2.6.7.5 3.9-1.3 6.8-5 6.8-9.4-.1-5.4-4.5-9.8-10-9.8z"/></svg>