<svg xmlns="http://www.w3.org/2000/svg" viewBox="0 0 20 20"><g fill="#181616"><path d="M10 6.7c-1.8 0-3.3 1.5-3.3 3.3 0 1.8 1.5 3.3 3.3 3.3s3.3-1.5 3.3-3.3c0-1.8-1.5-3.3-3.3-3.3z"/><path d="M19.9 6c0-1.1-.2-1.8-.5-2.4-.3-.6-.6-1.2-1.1-1.7S17.2 1 16.5.7c-.6-.2-1.3-.4-2.4-.5-1-.1-1.4-.1-4.1-.1S7 .2 6 .3C4.9.3 4.2.5 3.6.8c-.7.2-1.2.5-1.8 1.1C1.3 2.4.9 3 .7 3.6.4 4.2.3 5 .2 6 .1 7.1.1 7.4.1 10.1c0 2.7 0 3 .1 4.1 0 1.1.2 1.8.5 2.4.3.6.6 1.2 1.1 1.7.5.5 1.1.9 1.7 1.1.6.2 1.3.4 2.4.5 1.1.1 1.5.1 4.1.1s3 0 4.1-.1c1.1 0 1.8-.2 2.4-.5.6-.3 1.2-.6 1.7-1.1.5-.5.9-1.1 1.1-1.7.2-.6.4-1.3.5-2.4s.1-1.4.1-4.1V6zM10 15.1c-2.8 0-5.1-2.3-5.1-5.1S7.2 4.9 10 4.9s5.1 2.3 5.1 5.1-2.3 5.1-5.1 5.1zm5.3-9.2c-.7 0-1.2-.5-1.2-1.2s.5-1.2 1.2-1.2 1.2.5 1.2 1.2-.6 1.2-1.2 1.2z"/></g></svg>